<svg width="20" height="20" viewBox="0 0 20 20" fill="none" xmlns="http://www.w3.org/2000/svg">
<g id="flat-color-icons:google">
<path id="Vector" d="M18.1711 8.36824H17.4998V8.33366H9.99984V11.667H14.7094C14.0223 13.6074 12.1761 15.0003 9.99984 15.0003C7.23859 15.0003 4.99984 12.7616 4.99984 10.0003C4.99984 7.23908 7.23859 5.00033 9.99984 5.00033C11.2744 5.00033 12.434 5.48116 13.3169 6.26658L15.674 3.90949C14.1857 2.52241 12.1948 1.66699 9.99984 1.66699C5.39775 1.66699 1.6665 5.39824 1.6665 10.0003C1.6665 14.6024 5.39775 18.3337 9.99984 18.3337C14.6019 18.3337 18.3332 14.6024 18.3332 10.0003C18.3332 9.44158 18.2757 8.89616 18.1711 8.36824Z" fill="#FFC107"/>
<path id="Vector_2" d="M2.62744 6.12158L5.36536 8.12949C6.10619 6.29533 7.90036 5.00033 9.99994 5.00033C11.2745 5.00033 12.4341 5.48116 13.317 6.26658L15.6741 3.90949C14.1858 2.52241 12.1949 1.66699 9.99994 1.66699C6.79911 1.66699 4.02327 3.47408 2.62744 6.12158Z" fill="#FF3D00"/>
<path id="Vector_3" d="M9.9998 18.3336C12.1523 18.3336 14.1081 17.5099 15.5869 16.1703L13.0077 13.9878C12.1429 14.6454 11.0862 15.0011 9.9998 15.0003C7.8323 15.0003 5.99189 13.6182 5.29855 11.6895L2.58105 13.7832C3.96022 16.482 6.76105 18.3336 9.9998 18.3336Z" fill="#4CAF50"/>
<path id="Vector_4" d="M18.1713 8.36759H17.5V8.33301H10V11.6663H14.7096C14.3809 12.5898 13.7889 13.3968 13.0067 13.9876L13.0079 13.9868L15.5871 16.1693C15.4046 16.3351 18.3333 14.1663 18.3333 9.99967C18.3333 9.44092 18.2758 8.89551 18.1713 8.36759Z" fill="#1976D2"/>
</g>
</svg>
