<svg width="11" height="14" viewBox="0 0 11 14" fill="none" xmlns="http://www.w3.org/2000/svg">
<g id="Group 1265">
<path id="Vector" d="M0 13.1026H10.7834V10.7629C10.7822 9.89445 10.3842 9.06187 9.67668 8.4478C8.96913 7.83372 8.00981 7.4883 7.00919 7.4873H3.77418C2.77356 7.4883 1.81424 7.83372 1.10669 8.4478C0.399144 9.06187 0.00114161 9.89445 0 10.7629V13.1026Z" fill="#403A4B" fill-opacity="0.6"/>
<path id="Vector_2" d="M1.61719 3.27558C1.61719 3.92343 1.83854 4.55673 2.25325 5.0954C2.66796 5.63407 3.25741 6.05391 3.94705 6.30183C4.63669 6.54975 5.39555 6.61462 6.12767 6.48823C6.85979 6.36184 7.53229 6.04987 8.06011 5.59177C8.58794 5.13367 8.9474 4.55002 9.09303 3.91462C9.23865 3.27922 9.16391 2.62061 8.87825 2.02207C8.5926 1.42354 8.10885 0.911961 7.48819 0.552035C6.86753 0.19211 6.13783 0 5.39137 0C4.39039 0 3.43042 0.345105 2.72262 0.959396C2.01482 1.57369 1.61719 2.40684 1.61719 3.27558Z" fill="#403A4B" fill-opacity="0.6"/>
</g>
</svg>
