<svg width="17" height="11" viewBox="0 0 17 11" fill="none" xmlns="http://www.w3.org/2000/svg">
<path id="Vector" d="M16.7262 5.85731C16.7025 5.90436 16.1318 7.02318 14.8625 8.14486C13.1719 9.63894 11.0358 10.4287 8.68518 10.4287C6.33461 10.4287 4.19843 9.639 2.50787 8.14492C1.23854 7.02318 0.66776 5.9043 0.644104 5.85725C0.61348 5.79633 0.597656 5.73042 0.597656 5.66376C0.597656 5.5971 0.61348 5.53118 0.644104 5.47026C0.667827 5.42321 1.23854 4.30463 2.50794 3.18307C4.1985 1.68935 6.33455 0.899754 8.68518 0.899754C11.0358 0.899754 13.1719 1.68935 14.8624 3.18307C16.1318 4.30463 16.7025 5.42315 16.7263 5.47026C16.7569 5.53118 16.7727 5.5971 16.7727 5.66376C16.7727 5.73042 16.7568 5.79639 16.7262 5.85731ZM8.68518 7.80777C9.16505 7.80777 9.63414 7.68203 10.0331 7.44644C10.4321 7.21085 10.7431 6.876 10.9267 6.48423C11.1104 6.09247 11.1584 5.66138 11.0648 5.24548C10.9712 4.82958 10.7401 4.44755 10.4008 4.14771C10.0615 3.84786 9.62917 3.64366 9.15852 3.56094C8.68787 3.47821 8.20004 3.52067 7.7567 3.68294C7.31336 3.84522 6.93443 4.12002 6.66783 4.4726C6.40123 4.82519 6.25893 5.23971 6.25893 5.66376C6.25964 6.23219 6.51549 6.77716 6.97035 7.17911C7.42521 7.58105 8.04192 7.80714 8.68518 7.80777Z" fill="#403A4B" fill-opacity="0.6"/>
</svg>
