<svg width="41" height="40" viewBox="0 0 41 40" fill="none" xmlns="http://www.w3.org/2000/svg">
<g id="vuesax/linear/bus">
<g id="bus">
<path id="Vector" d="M28.6665 36.6663H12.3332C9.49985 36.6663 7.1665 34.3497 7.1665 31.4997V8.49968C7.1665 5.66635 9.48318 3.33301 12.3332 3.33301H28.6665C31.4998 3.33301 33.8332 5.64968 33.8332 8.49968V31.4997C33.8332 34.3497 31.5165 36.6663 28.6665 36.6663Z" stroke="#A2001D" stroke-width="2" stroke-linecap="round" stroke-linejoin="round"/>
<path id="Vector_2" d="M31.3332 21.6663H9.6665C8.28317 21.6663 7.1665 20.5497 7.1665 19.1663V15.833C7.1665 14.4497 8.28317 13.333 9.6665 13.333H31.3332C32.7165 13.333 33.8332 14.4497 33.8332 15.833V19.1663C33.8332 20.5497 32.7165 21.6663 31.3332 21.6663Z" stroke="#A2001D" stroke-width="2" stroke-linecap="round" stroke-linejoin="round"/>
<path id="Vector_3" d="M14.6577 29.5003H14.6726" stroke="#A2001D" stroke-width="2" stroke-linecap="round" stroke-linejoin="round"/>
<path id="Vector_4" d="M26.3242 29.5003H26.3391" stroke="#A2001D" stroke-width="2" stroke-linecap="round" stroke-linejoin="round"/>
<path id="Vector_5" d="M16.3335 8.33301H24.6668" stroke="#A2001D" stroke-width="2" stroke-linecap="round" stroke-linejoin="round"/>
</g>
</g>
</svg>
