<svg width="41" height="40" viewBox="0 0 41 40" fill="none" xmlns="http://www.w3.org/2000/svg">
<g id="vuesax/linear/wallet">
<path id="Vector" d="M37.1668 20.0003V28.3337C37.1668 33.3337 33.8335 36.667 28.8335 36.667H12.1668C7.16683 36.667 3.8335 33.3337 3.8335 28.3337V20.0003C3.8335 15.467 6.56683 12.3003 10.8168 11.767C11.2502 11.7003 11.7002 11.667 12.1668 11.667H28.8335C29.2668 11.667 29.6835 11.6836 30.0835 11.7503C34.3835 12.2503 37.1668 15.4337 37.1668 20.0003Z" stroke="#A2001D" stroke-width="2" stroke-linecap="round" stroke-linejoin="round"/>
<path id="Vector_2" d="M30.0855 11.7497C29.6855 11.683 29.2688 11.6664 28.8355 11.6664H12.1688C11.7022 11.6664 11.2522 11.6997 10.8188 11.7664C11.0522 11.2997 11.3855 10.8664 11.7855 10.4664L17.2022 5.03301C19.4855 2.76634 23.1855 2.76634 25.4688 5.03301L28.3855 7.98304C29.4522 9.03304 30.0188 10.3663 30.0855 11.7497Z" stroke="#A2001D" stroke-width="2" stroke-linecap="round" stroke-linejoin="round"/>
<path id="Vector_3" d="M37.1668 20.833H32.1668C30.3335 20.833 28.8335 22.333 28.8335 24.1663C28.8335 25.9997 30.3335 27.4997 32.1668 27.4997H37.1668" stroke="#A2001D" stroke-width="2" stroke-linecap="round" stroke-linejoin="round"/>
</g>
</svg>
