<svg width="41" height="40" viewBox="0 0 41 40" fill="none" xmlns="http://www.w3.org/2000/svg">
<g id="vuesax/linear/car">
<g id="car">
<path id="Vector" d="M26.3498 4.7168H14.6498C10.4998 4.7168 9.58317 6.78346 9.04984 9.3168L7.1665 18.3335H33.8332L31.9498 9.3168C31.4165 6.78346 30.4998 4.7168 26.3498 4.7168Z" stroke="#A2001D" stroke-width="2" stroke-linecap="round" stroke-linejoin="round"/>
<path id="Vector_2" d="M37.15 33.033C37.3334 34.983 35.7667 36.6663 33.7667 36.6663H30.6334C28.8334 36.6663 28.5834 35.8997 28.2667 34.9497L27.9334 33.9497C27.4667 32.583 27.1667 31.6663 24.7667 31.6663H16.2334C13.8334 31.6663 13.4834 32.6997 13.0667 33.9497L12.7334 34.9497C12.4167 35.8997 12.1667 36.6663 10.3667 36.6663H7.23338C5.23338 36.6663 3.66672 34.983 3.85005 33.033L4.78338 22.883C5.01672 20.383 5.50005 18.333 9.86672 18.333H31.1334C35.5 18.333 35.9834 20.383 36.2167 22.883L37.15 33.033Z" stroke="#A2001D" stroke-width="2" stroke-linecap="round" stroke-linejoin="round"/>
<path id="Vector_3" d="M7.16667 13.333H5.5" stroke="#A2001D" stroke-width="2" stroke-linecap="round" stroke-linejoin="round"/>
<path id="Vector_4" d="M35.5002 13.333H33.8335" stroke="#A2001D" stroke-width="2" stroke-linecap="round" stroke-linejoin="round"/>
<path id="Vector_5" d="M20.5 5V8.33333" stroke="#A2001D" stroke-width="2" stroke-linecap="round" stroke-linejoin="round"/>
<path id="Vector_6" d="M18 8.33301H23" stroke="#A2001D" stroke-width="2" stroke-linecap="round" stroke-linejoin="round"/>
<path id="Vector_7" d="M10.5 25H15.5" stroke="#A2001D" stroke-width="2" stroke-linecap="round" stroke-linejoin="round"/>
<path id="Vector_8" d="M25.5 25H30.5" stroke="#A2001D" stroke-width="2" stroke-linecap="round" stroke-linejoin="round"/>
</g>
</g>
</svg>
